<?xml version="1.0" standalone="no"?>
<!DOCTYPE svg PUBLIC "-//W3C//DTD SVG 1.1//EN" "http://www.w3.org/Graphics/SVG/1.1/DTD/svg11.dtd" >
<svg>
<metadata>
Created by FontForge 20110222 at Mon Mar  7 04:39:58 2011
 By www-data
Copyright 1991, Atech Software, Carlsbad CA 
</metadata>
<defs>
<font id="ChessPiece" horiz-adv-x="1000" >
  <font-face 
    font-family="Chess"
    font-weight="5"
    font-stretch="normal"
    units-per-em="1000"
    panose-1="0 0 0 0 0 0 0 0 0 0"
    ascent="900"
    descent="-100"
    x-height="575"
    cap-height="900"
    bbox="-50 -150 1050 950"
    underline-thickness="50"
    underline-position="-55"
    unicode-range="U+0020-2122"
  />
    <missing-glyph />
    <glyph glyph-name="space" unicode=" " 
 />
    <glyph glyph-name="exclam" unicode="!" 
 />
    <glyph glyph-name="quotedbl" unicode="&#x22;" 
 />
    <glyph glyph-name="numbersign" unicode="#" 
 />
    <glyph glyph-name="dollar" unicode="$" 
 />
    <glyph glyph-name="percent" unicode="%" 
 />
    <glyph glyph-name="ampersand" unicode="&#x26;" 
 />
    <glyph glyph-name="quotesingle" unicode="'" 
 />
    <glyph glyph-name="parenleft" unicode="(" 
 />
    <glyph glyph-name="parenright" unicode=")" 
 />
    <glyph glyph-name="asterisk" unicode="*" 
 />
    <glyph glyph-name="plus" unicode="+" 
d="M0 -58l958 958h42l-1000 -1000v42zM118 -100l882 882v-42l-840 -840h-42zM278 -100l722 722v-42l-680 -680h-42zM439 -100l561 561v-42l-519 -519h-42zM599 -100l401 401v-42l-359 -359h-42zM761 -100l239 239v-42l-197 -197h-42zM921 -100l79 79v-42l-37 -37h-42z
M810 900h42l-852 -852v42zM660 900h42l-702 -702v42zM510 900h42l-552 -552v42zM360 900h42l-402 -402v42zM208 900h42l-250 -250v42zM60 900h42l-102 -102v42z" />
    <glyph glyph-name="comma" unicode="," 
 />
    <glyph glyph-name="hyphen" unicode="-" 
d="M1050 -100h-1100v50h1100v-50z" />
    <glyph glyph-name="period" unicode="." 
 />
    <glyph glyph-name="slash" unicode="/" 
d="M950 -150v1100h50v-1100h-50z" />
    <glyph glyph-name="zero" unicode="0" 
 />
    <glyph glyph-name="one" unicode="1" 
 />
    <glyph glyph-name="two" unicode="2" 
 />
    <glyph glyph-name="three" unicode="3" 
 />
    <glyph glyph-name="four" unicode="4" 
 />
    <glyph glyph-name="five" unicode="5" 
 />
    <glyph glyph-name="six" unicode="6" 
 />
    <glyph glyph-name="seven" unicode="7" 
 />
    <glyph glyph-name="eight" unicode="8" 
 />
    <glyph glyph-name="nine" unicode="9" 
 />
    <glyph glyph-name="colon" unicode=":" 
 />
    <glyph glyph-name="semicolon" unicode=";" 
 />
    <glyph glyph-name="less" unicode="&#x3c;" 
 />
    <glyph glyph-name="equal" unicode="=" 
 />
    <glyph glyph-name="greater" unicode="&#x3e;" 
 />
    <glyph glyph-name="question" unicode="?" 
 />
    <glyph glyph-name="at" unicode="@" 
 />
    <glyph glyph-name="A" unicode="A" 
 />
    <glyph glyph-name="B" unicode="B" 
d="M27 -100l54 54h42l-54 -54h-42zM177 -100l54 54h42l-54 -54h-42zM327 -100l54 54h42l-54 -54h-42zM476 -100l54 54h42l-54 -54h-42zM626 -100l54 54h42l-54 -54h-42zM777 -100l54 54h42l-54 -54h-42zM926 -100l74 74v-42l-32 -32h-42zM0 33l42 42l6 -36l-48 -48v42z
M877 0h-291q-16 0 -29 9t-23 22l-9 11l-8 10l-8 6q-3 3 -9 3l-6 -1l-4 -2q-5 -3 -13 -12l-14 -15q-10 -12 -26.5 -21.5t-44.5 -9.5h-269l-42 200h264h4h5l12 1q3 1 5 6q0 8 -15 22l-32 37q-19 24 -33 57t-14 80q0 59 21 101.5t48 74t48.5 49.5t22.5 25l-2 9l-3 14l-4 17
l-1 23q0 33 29 60.5t64 27.5h5h5q29 -3 55.5 -31t26.5 -68l-1 -14q0 -8 -2 -12l-4 -11l-6 -12l20 -17l19 -17q52 -47 78.5 -98t26.5 -122q0 -38 -14.5 -70.5t-32.5 -56.5l-33 -42q-12 -15 -14 -26q4 -6 6 -6l17 -1h5h262zM833 129h-217q-26 0 -46 17.5t-20 42.5l1 10l3 11
q6 16 19 35l28 37q6 8 17 25q8 12 18 29q16 30 16 65q0 64 -24.5 115t-77.5 80q-26 -55 -32 -110l-5 -85v-8v-6h-67v7q0 39 1.5 57.5t8.5 46.5q14 51 31 92l28 64q11 26 13 35v5q0 18 -8 31q-6 14 -24 14h-5q-9 -1 -19 -11t-10 -25l1 -19l4 -17v-4l1 -3l2 -13l1 -13
q0 -9 -4 -16l-11 -14l-22 -19q-13 -10 -24 -22q-23 -22 -42.5 -63t-19.5 -112q0 -33 15 -59.5t35 -50.5l18 -24l17 -23l10 -21l4 -22q0 -30 -18.5 -44.5t-45.5 -14.5h-216l12 -58h226q17 0 29 9l20 22l3 3l18 19q9 9 25 9q10 0 21 -9l20 -18l3 -4l22 -22q11 -9 24 -9h230z
M1000 90l-68 -68l17 62l51 51v-45zM0 194l20 20l6 -38l-26 -26v44zM1000 403l-167 -167l-43 -1l210 210v-42zM41 236l192 192l2 -40l-152 -152h-42zM186 236l58 58l7 -35l-23 -23h-42zM1000 255l-19 -19h-42l61 61v-42zM1000 560l-227 -227l20 62l207 207v-42zM0 377
l344 344l8 -34l-352 -352v42zM360 900h42l-402 -402v42zM1000 724l-212 -212l-10 32l222 222v-42zM1000 900l-269 -269l-22 20l249 249h42zM208 900h42l-250 -250v42zM852 900l-190 -190l-11 31l159 159h42zM60 900h42l-102 -102v42zM552 900l-54 -54h-42l54 54h42zM702 900
l-54 -54h-42l54 54h42z" />
    <glyph glyph-name="C" unicode="C" 
 />
    <glyph glyph-name="D" unicode="D" 
 />
    <glyph glyph-name="E" unicode="E" 
 />
    <glyph glyph-name="F" unicode="F" 
 />
    <glyph glyph-name="G" unicode="G" 
 />
    <glyph glyph-name="H" unicode="H" 
d="M27 -100l131 131l-3 -45l-86 -86h-42zM177 -100l48 48h42l-48 -48h-42zM327 -100l48 48h42l-48 -48h-42zM476 -100l48 48h42l-48 -48h-42zM626 -100l48 48h42l-48 -48h-42zM776 -100l48 48h42l-48 -48h-42zM926 -100l74 74v-42l-32 -32h-42zM227 0v18l1 18q0 24 6.5 47.5
t19.5 48.5q21 45 83 69q0 30 26 53l58 42l6 4l6 4l50 37q22 19 22 44l-3 15q-3 6 -16 7l-9 -3l-7 -7l-8 -10l-7 -10l-12 -14l-15 -11l-18 -8q-2 -1 -19 -6l-32 -10q-16 -4 -26.5 -10.5t-12 -17t-2.5 -11.5l-3 -6q-8 -8 -28 -19q-19 -8 -40 -8q-39 0 -62 29t-26 64v6
q0 38 18 70q10 18 19 31.5t22 28.5l17 21l16 22q8 11 10 15q3 6 7.5 16t6.5 17.5t2 18.5q0 16 11 27l28 25l4 3l5 3l31 27q16 16 16 33l2 14q0 11 2.5 22t9 22t20.5 14q13 -7 27 -23l29 -33q15 -21 32.5 -37.5t36.5 -21.5q3 -1 16.5 -4.5t31.5 -9.5q39 -11 84.5 -42.5
t87.5 -94t42 -167.5q0 -21 -1 -39t-4 -34l-12 -58l-4 -11l-3 -11q54 -35 63 -81t9 -101v-9v-8h-614zM767 71q0 33 -27 48q-13 8 -27 13t-40 13l-3 1l-21 5l-18 3l-46 3h-39h-9h-8h-4h-4l-39 -1l-52 -3l-22 -3l-20 -4q-35 -9 -61 -24.5t-26 -50.5h466zM674 504
q-48 63 -106 93q-18 10 -38 16t-39 6q-6 0 -15 9l-17 20l-2 2l-19 24q-8 8 -15 10l-4 -2q-3 -21 -14 -36t-24 -26l-26 -20q-10 -7 -13 -16q-10 -35 -22 -60l-24 -45q-17 -26 -32.5 -44.5t-23.5 -33.5l-8 -16l-2 -15v-6l1 -6q2 -13 8 -22t18 -9l9 1l7 4l8 8l13 14l2 2l4 3
l17 10l22 10l32 12l18 5l8 2l9 7l11 14l13 18l24 28q15 13 33 13h6q24 0 44.5 -18.5t30.5 -40.5l6 -16l2 -15q0 -48 -22.5 -72.5t-50.5 -42.5l-25 -13q-14 -5 -21 -11l-20 -13q-5 -5 -7 -16l44 5q27 3 76 3l82 -3q12 0 23.5 -0.5t42.5 -4.5q12 19 20 61q2 13 3 40.5t1 43.5
q0 74 -48 139zM0 43l170 170l24 -18l-194 -194v42zM1000 89l-86 -86l-1 41l87 87v-42zM1000 247l-101 -101l-16 26l117 117v-42zM0 199l111 111l12 -30l-123 -123v42zM1000 405l-134 -134l7 49l127 127v-42zM0 369l114 114l-15 -57l-99 -99v42zM1000 567l-137 -137l-9 33
l146 146v-42zM360 900h42l-402 -402v42zM1000 726l-178 -178l-14 28l192 192v-42zM208 900h42l-250 -250v42zM1000 900l-246 -246l-24 18l228 228h42zM852 900l-194 -194l-34 8l186 186h42zM702 900l-146 -146l-16 26l120 120h42zM60 900h42l-102 -102v42zM552 900l-66 -66
h-42l66 66h42z" />
    <glyph glyph-name="I" unicode="I" 
 />
    <glyph glyph-name="J" unicode="J" 
d="M27 -100l152 152l-15 -57l-95 -95h-42zM177 -100l52 52h42l-52 -52h-42zM327 -100l52 52h42l-52 -52h-42zM476 -100l52 52h42l-52 -52h-42zM626 -100l52 52h42l-52 -52h-42zM777 -100l52 52h42l-52 -52h-42zM926 -100l74 74v-42l-32 -32h-42zM1000 89l-91 -91l-8 34
l99 99v-42zM244 0v2v25l3 31q3 30 16 54.5t47 27.5l35 3l38 4l72 7l85 3q22 0 49.5 -1t57.5 -4q34 0 71 -5t63 -8t39 -34q3 -8 8 -26t5 -39l1 -19v-18v-3h-590zM0 45l196 196l27 -15l-223 -223v42zM1000 246l-121 -121l-9 33l130 130v-42zM0 200l122 122l13 -29l-135 -135
v42zM420 393q-20 -9 -33 -14q-3 -1 -37 -12l-2 -1l-21 -6l-20 -7q-7 -2 -17 -12l-11 -17l-2 -3l-1 -3l-13 -18q-6 -6 -17 -7l-11 1l-11 2q-20 6 -39 21t-19 33q0 43 22 81q21 40 50 67q12 12 24 28q6 8 14 20q16 29 16 62q0 12 5 20l15 17l13 10l14 13l19 21q8 11 16 30
l3 11l3 12v2l7 27q5 12 19 12l19 -19l19 -21l3 -5l4 -5q18 -24 40.5 -44t54.5 -20q12 0 46 -11.5t71 -40.5q45 -35 86 -105q20 -34 30 -77.5t10 -100.5v-7v-6v-18q0 -12 2 -18v-64q0 -25 -17 -25h-1h-1h-6l-5 1l-118 12l-102 4l-84 -3l-72 -7l-38 -4l-35 -3q-7 0 -10 2
q-3 3 -3 8l3 11l9 14l12 12l14 12l3 2l3 3l33 15q14 5 21 8t22 11q33 15 60 39t27 64l-1 9l-1 11q-2 7 -3 11l-5 12.5t-8 11.5h-3l-3 -2l-3 -3q-24 -40 -59 -54zM1000 405l-130 -130v42l130 130v-42zM0 363l117 117l-5 -47l-112 -112v42zM1000 565l-141 -141l-4 38l145 145
v-42zM360 900h42l-402 -402v42zM1000 725l-173 -173l-16 26l189 189v-42zM1000 900l-262 -262l-22 20l242 242h42zM208 900h42l-250 -250v42zM852 900l-198 -198l-28 14l184 184h42zM702 900l-154 -154l-30 12l142 142h42zM60 900h42l-102 -102v42zM552 900l-102 -102
l-24 18l84 84h42z" />
    <glyph glyph-name="K" unicode="K" 
d="M27 -100l118 118l-5 -47l-71 -71h-42zM177 -100l52 52h42l-52 -52h-42zM327 -100l52 52h42l-52 -52h-42zM476 -100l52 52h42l-52 -52h-42zM626 -100l52 52h42l-52 -52h-42zM776 -100l52 52h42l-52 -52h-42zM926 -100l74 74v-42l-32 -32h-42zM1000 87l-111 -111l-5 37
l116 116v-42zM0 39l155 155l-11 -53l-144 -144v42zM195 0q0 45 1.5 62t6.5 43q9 46 58 85q0 14 -1 22.5t-6 18.5q-8 19 -22 36l-18 20l-19 23q-21 25 -43 63q-10 19 -16.5 42t-6.5 49v13l1 13q8 57 47 103t99 46t96 -26q37 -24 62 -56q21 -27 37 -57q13 -24 25 -25
q7 0 19.5 25.5t36.5 56.5t62 56.5t100 25.5q81 0 119.5 -53.5t38.5 -129.5q0 -42 -20 -76q-11 -19 -20 -32.5t-24 -31.5l-30 -39l-23 -36l-8 -21l-3 -21v-5l1 -6q49 -34 57.5 -83t8.5 -105h-616zM737 71q0 37 -27.5 52t-72.5 24l-28 4l-43 3h-15q-9 0 -25 2l-28 1l-27 -1
l-44 -3q-21 0 -32 -2l-26 -3l-8 -1l-5 -1q-32 -4 -59.5 -20t-27.5 -55h468zM477 400l-17 16l-22 29l-24 36q-24 35 -56 60q-32 27 -83 27q-25 0 -40 -14t-25 -34l-8 -26l-2 -18q0 -46 19 -78.5t46 -66.5l22 -28l21 -28l15 -30q6 -14 6 -30q26 5 42.5 7.5t36.5 2.5l83 3
l43 -1l45 -3q26 0 49 -4q13 0 21 -1t26 -4q0 25 12 47.5t27 41.5l12 15l12 15q24 29 43.5 62.5t19.5 78.5q0 49 -28 71t-73 22q-49 0 -80 -27t-52 -60l-21 -34l-18 -28q-6 -11 -15 -17.5t-18 -6.5q-10 0 -19 5zM1000 243l-137 -137l-14 28l151 151v-42zM0 201l111 111
l16 -26l-127 -127v42zM1000 408l-97 -97l18 60l79 79v-42zM0 359l74 74l6 -36l-80 -80v42zM0 520l74 74l-5 -47l-69 -69v42zM1000 571l-64 -64l-7 35l71 71v-42zM550 794q21 -18 21 -47q0 -11 -8 -39.5t-22 -58.5l-5 -14l-6 -14l-19 -43l-15 -28q-7 9 -15 26l-17 41l-7 16
l-6 17l-19 57q-1 5 -4 20.5t-4 19.5q0 26 21 47q22 19 55 19q30 0 50 -19zM479 749l-4 -21q0 -12 6 -33l14 -46l15 46q6 20 6 33q0 16 -5 21q-3 6 -15 6q-11 0 -17 -6zM1000 729l-107 -107l-18 24l125 125v-42zM208 900h42l-250 -250v42zM402 900l-213 -213l-54 -12l225 225
h42zM375 709l-24 -24l-37 5l62 62zM1000 900l-214 -214l-33 9l205 205h42zM852 900l-182 -182l-44 -2l184 184h42zM60 900h42l-102 -102v42zM552 900l-54 -54h-42l54 54h42zM702 900l-54 -54h-42l54 54h42z" />
    <glyph glyph-name="L" unicode="L" 
d="M27 -100l111 111l-6 -48l-63 -63h-42zM177 -100l50 50h42l-50 -50h-42zM327 -100l50 50h42l-50 -50h-42zM476 -100l50 50h42l-50 -50h-42zM626 -100l50 50h42l-50 -50h-42zM776 -100l50 50h42l-50 -50h-42zM926 -100l74 74v-42l-32 -32h-42zM1000 87l-116 -116l-6 36
l122 122v-42zM205 0v2v25l3 31q3 30 16 54.5t47 27.5l35 3l38 4l72 7l85 3q22 0 49.5 -1t57.5 -4q34 0 71 -5t63 -8t39 -34q3 -8 8 -26t5 -39l1 -19v-18v-3h-590zM0 45l168 168l5 -38l-173 -172v42zM1000 243l-139 -139l-15 27l154 154v-42zM0 203l129 129l19 -23l-148 -148
v42zM748 269l4 -14l3 -15l2 -13q0 -8 -5 -15.5t-20 -15.5l-124 12l-107 5l-92 -3l-77 -7l-31 -4l-30 -3q-12 7 -20 18q-3 6 -5 21l1 10q0 7 2 11l1 6l2 5l3 16l2 15q0 15 -8 24q-6 11 -18 21l-14 12l-16 14q-19 17 -38 44q-17 28 -17 72q0 69 46 118.5t110 49.5q56 0 91 -21
q31 -18 53 -45l2 -3q16 -19 24.5 -37t16.5 -26l6 -6l6 -1l4 1l5 5l14 26q7 17 22 38l2 3q20 25 56 45.5t103 20.5q63 0 105.5 -45.5t42.5 -122.5q0 -38 -17.5 -64.5t-36.5 -47.5l-12 -12l-11 -12l-22 -31q-9 -15 -9 -33zM346 426l3 -6l8 -15l12 -14l12 -17q6 -8 9 -17l1 -5
l1 -4v-5l1 -4l3 -16q3 -6 10 -6q5 0 10 6l3 15v6v6q0 7 -2 11l-3 11l-6 13l-6 13l-9 21l-6 22l-2 6l-8 10q-3 3 -12 5q-5 0 -11 -6l-6 -13q-1 -5 -2 -6v-5v-6zM653 437l-1 6l-7 13q-3 6 -10 6t-13 -5l-7 -10l-2 -4l-7 -22l-8 -20l-7 -15l-5 -14l-4 -11l-1 -11v-6v-6l3 -15
q3 -6 10 -6q6 0 9 7l4 15l1 6v7l2 5l9 17l12 17l11 14l9 15l2 6l1 6zM1000 403l-165 -165l4 46l161 161v-42zM0 359l79 79l10 -32l-89 -89v42zM0 521l96 96l-15 -57l-81 -81v42zM1000 571l-78 -78l-7 35l85 85v-42zM551 790q19 -17 19 -47q0 -16 -10 -45l-22 -61
q-2 -8 -5 -12l-4 -11l-16 -37l-13 -30l-14 31q-5 16 -8 22q-6 11 -8 15l-4 11l-5 11l-21 58q-9 27 -9 43v6l1 6q3 21 20.5 39t47.5 18q33 0 51 -17zM1000 729l-112 -112l-13 29l125 125v-42zM208 900h42l-250 -250v42zM416 900l-190 -190l-54 -12l202 202h42zM1000 900
l-196 -196l-28 14l182 182h42zM863 900l-167 -167l-44 -2l169 169h42zM60 900h42l-102 -102v42zM709 900l-96 -96l-30 12l84 84h42zM556 900l-60 -60h-42l60 60h42z" />
    <glyph glyph-name="M" unicode="M" 
 />
    <glyph glyph-name="N" unicode="N" 
d="M29 -100l54 54h42l-54 -54h-42zM177 -100l54 54h42l-54 -54h-42zM328 -100l54 54h42l-54 -54h-42zM478 -100l54 54h42l-54 -54h-42zM628 -100l54 54h42l-54 -54h-42zM776 -100l54 54h42l-54 -54h-42zM927 -100l73 73v-42l-31 -31h-42zM0 32l36 36l10 -32l-46 -46v42z
M877 0h-285q-21 0 -35 11l-21 25l-2 3l-8 13l-6 11l-10 11l-9 4q-8 -2 -10 -4l-8 -8l-9 -12l-9 -15l-2 -3q-9 -12 -25 -25q-16 -11 -39 -11h-274l-33 148h226q10 0 13 7l4 18v2v5l1 5q2 9 6.5 16t17.5 8h304q6 0 9 -7l4 -13v-6v-4v-3v-6q0 -10 2 -15q1 -6 8 -7h222zM1000 91
l-45 -45l5 47l40 40v-42zM0 205l204 204l5 -37l-209 -209v42zM157 200l88 88l12 -30l-58 -58h-42zM1000 400l-200 -200h-42l242 242v-42zM1000 250l-50 -50h-42l92 92v-42zM515 454l1 16q0 10 2 16l3 26l6 31l3 12l3 12q5 14 8.5 23t13 25.5t26.5 34.5q36 -6 68 -47.5
t54 -92.5l13 -45l5 -39q0 -79 -14 -111q-12 -33 -30 -45q-8 -5 -19 -7l-15 -1h-2h-262h-2l-20 1q-10 0 -23 7q-19 10 -36.5 44.5t-17.5 111.5q0 61 25 106t54.5 77t54 50.5t25.5 26.5l-2 13l-3 13l-1 3l-5 19l-2 17q0 25 15 45.5t50 20.5q23 0 40.5 -18.5t21.5 -42.5l1 -6
v-6q0 -25 -10 -48l-21 -45l-6 -9l-4 -9l-24 -45q-11 -21 -14.5 -40.5t-5.5 -32t-3 -20.5v-41h49zM0 366l233 233l-17 -59l-216 -216v42zM1000 562l-206 -206l7 49l199 199v-42zM360 900h42l-402 -402v42zM1000 721l-218 -218l-5 37l223 223v-42zM1000 900l-284 -284l-16 26
l258 258h42zM208 900h42l-250 -250v42zM853 900l-194 -194l-16 26l168 168h42zM702 900l-104 -104l-20 22l82 82h42zM60 900h42l-102 -102v42zM552 900l-42 -42h-42l42 42h42z" />
    <glyph glyph-name="O" unicode="O" 
d="M27 -100l170 170l-2 -44l-126 -126h-42zM177 -100l62 62h42l-62 -62h-42zM327 -100l62 62h42l-62 -62h-42zM476 -100l62 62h42l-62 -62h-42zM626 -100l62 62h42l-62 -62h-42zM777 -100l223 223v-42l-181 -181h-42zM926 -100l74 74v-42l-32 -32h-42zM0 37l362 362l24 -18
l-386 -386v42zM257 0l-3 20l-1 19q0 42 16 70q9 16 17.5 26.5t20.5 21.5l6 5l7 5q20 16 39.5 25t21.5 13l-1 7v8l3 28l9 28q15 33 41.5 56.5t57.5 29.5l5 1h5l7 -1h7q27 -6 53 -30t41 -56l7 -21l4 -21l1 -7v-7v-8l-1 -7l21 -13q18 -8 43 -27l5 -4l6 -4q20 -17 37 -47t17 -72
l-1 -19l-3 -19h-488zM1000 241l-185 -185l-6 36l191 191v-42zM1000 399l-228 -228l-21 21l249 249v-42zM0 220l352 352l-5 -47l-347 -347v42zM1000 554l-296 -296l-18 24l314 314v-42zM520 900h42l-562 -562v42zM1000 711l-363 -363l-20 22l383 383v-42zM433 547
q28 28 68 28q39 0 67 -28t28 -67t-28 -67t-67 -28t-67 27.5t-28 67.5q0 38 27 67zM359 900h42l-401 -401v42zM1000 900l-373 -373l-8 34l339 339h42zM698 900l-276 -276h-42l276 276h42zM843 900l-266 -266h-42l266 266h42zM223 900h42l-265 -265v42zM64 900h42l-106 -106
v42z" />
    <glyph glyph-name="P" unicode="P" 
d="M27 -100l150 150l-2 -44l-106 -106h-42zM177 -100l54 54h42l-54 -54h-42zM327 -100l54 54h42l-54 -54h-42zM476 -100l54 54h42l-54 -54h-42zM626 -100l54 54h42l-54 -54h-42zM777 -100l223 223v-42l-181 -181h-42zM926 -100l74 74v-42l-32 -32h-42zM240 0q0 71 26.5 125
t78.5 91q12 8 15 23l4 32v5v4l1 18q0 9 4 16l9 14l14 14l2 2l18 20q9 9 9 22q0 10 -7 21l-15 27l-16 33q-6 18 -6 37q0 47 37.5 81.5t86.5 34.5q48 0 85.5 -34.5t37.5 -81.5q0 -17 -6 -36.5t-16 -33.5l-15 -27q-1 -2 -4 -10.5t-3 -10.5q0 -13 8 -22l19 -20l2 -2l14 -14
q7 -6 9 -14l4 -18l1 -23v-5v-4q0 -15 4 -27.5t15 -20.5q49 -34 77 -89q14 -28 21 -58t7 -69h-521zM690 71q0 28 -16 48t-37 36l-25 19l-19 17q-5 5 -8 13l-2 14v8l2 10v10l1 11q0 13 -1.5 22.5t-9.5 22.5q-3 10 -11 15l-14 14l-1 1q-12 9 -21 21t-9 33q0 11 2 16l6 13l4 7
l4 8l12 26q6 15 6 42q0 25 -14 38q-4 3 -13.5 8t-23.5 5q-25 0 -39.5 -13t-14.5 -38q0 -26 4.5 -40.5t10.5 -23.5l2 -4l4 -8l5 -7l6 -13l2 -16q0 -21 -9 -33l-20 -21l-2 -2l-14 -13l-10 -15l-10 -26l-2 -22v-10l2 -10v-9l1 -8l-3 -14q-2 -7 -7 -12l-19 -17l-25 -19
q-18 -14 -37 -36q-16 -21 -16 -48h379zM0 48l278 278l-6 -48l-272 -272v42zM1000 242l-168 -168l-12 30l180 180v-42zM0 215l311 311l-5 -47l-306 -306v42zM1000 399l-215 -215l-17 25l232 232v-42zM1000 555l-271 -271l-15 27l286 286v-42zM510 900h42l-552 -552v42z
M1000 719l-318 -318l-11 31l329 329v-42zM360 900h42l-402 -402v42zM1000 900l-317 -317l-13 29l288 288h42zM208 900h42l-250 -250v42zM852 900l-236 -236l-30 12l224 224h42zM702 900l-201 -201l-46 -4l205 205h42zM60 900h42l-102 -102v42z" />
    <glyph glyph-name="Q" unicode="Q" 
d="M27 -100l99 99v-42l-57 -57h-42zM177 -100l44 44h42l-44 -44h-42zM327 -100l44 44h42l-44 -44h-42zM476 -100l44 44h42l-44 -44h-42zM626 -100l44 44h42l-44 -44h-42zM776 -100l44 44h42l-44 -44h-42zM926 -100l74 74v-42l-32 -32h-42zM1000 87l-110 -110l-5 37l115 115
v-42zM0 38l140 140l-11 -53l-129 -129v42zM196 0q0 45 1.5 62t7.5 53t56 75l-91 289q-29 0 -48 21t-19 49q0 31 21 52t50 21q30 0 51 -21.5t21 -51.5l-3 -18q-2 -9 -11 -20l79 -84l30 153q-25 11 -39 31t-14 45q0 33 23.5 56.5t57.5 23.5q32 0 57 -23.5t25 -56.5
q0 -19 -9.5 -36.5t-24.5 -29.5l81 -151l82 151q-10 7 -17.5 17.5t-12.5 24.5l-3 13l-1 11q0 32 24 56t57 24q32 0 57 -23.5t25 -56.5q0 -24 -14.5 -45t-38.5 -31l28 -154l80 85l-7 18l-3 20q0 31 21 52t50 21q30 0 51 -21.5t21 -51.5q0 -28 -18.5 -47.5t-47.5 -22.5
l-93 -287q49 -37 58 -85t9 -107h-609zM731 71q0 33 -26.5 47.5t-72.5 27.5l-23 5l-22 4l-41 2h-34h-8h-6h-4l-39 -1h-33q-16 -3 -23 -4l-22 -3l-20 -4q-34 -7 -60.5 -23t-26.5 -51h461zM651 323l-36 213l-117 -209l-115 209l-38 -215l-103 105l-2 -3l81 -210l51 8l49 5l33 1
l34 1l78 -3l85 -9l15 -3q10 0 16 -2l75 213l-2 2zM157 533q6 -6 17 -7q11 0 17 7t8 18q0 9 -6 15.5t-19 8.5q-9 0 -16 -6.5t-8 -17.5q0 -10 7 -18zM808 533q6 -6 17 -7q9 0 16 6.5t9 18.5q0 9 -8 16q-5 7 -17 8q-9 0 -15.5 -6.5t-8.5 -17.5q0 -10 7 -18zM349 634q8 -6 20 -8
q12 0 20.5 8.5t8.5 20.5q0 11 -7.5 19t-21.5 9q-11 0 -18.5 -7t-9.5 -21q0 -13 8 -21zM607 634q8 -6 20 -8q13 0 21 8q6 8 8 21q0 12 -7 19t-22 9q-11 0 -18.5 -7t-9.5 -21q0 -13 8 -21zM1000 244l-134 -134l-12 30l146 146v-42zM0 201l117 117l14 -28l-131 -131v42z
M1000 413l-125 -125l27 69l98 98v-42zM0 358l68 68l14 -28l-82 -82v42zM0 521l59 59l-5 -47l-54 -54v42zM1000 572l-50 -50v42l50 50v-42zM1000 732l-89 -89l-21 21l110 110v-42zM208 900h42l-250 -250v42zM1002 900l-176 -176l-28 14l162 162h42zM403 900l-127 -127
l-56 -14l141 141h42zM852 900l-127 -127l-29 13l114 114h42zM552 900l-108 -108h-42l108 108h42zM702 900l-106 -106l-43 -1l107 107h42zM60 900h42l-102 -102v42z" />
    <glyph glyph-name="R" unicode="R" 
d="M27 -100l120 120l4 -38l-82 -82h-42zM177 -100l56 56h42l-56 -56h-42zM327 -100l56 56h42l-56 -56h-42zM476 -100l56 56h42l-56 -56h-42zM626 -100l56 56h42l-56 -56h-42zM777 -100l223 223v-42l-181 -181h-42zM1000 -68l-32 -32h-42l74 74v-42zM0 40l168 168l-15 -57
l-153 -153v42zM204 0q0 66 8.5 111.5t58.5 88.5l32 248l-7 8l-7 9l-16 21l-13 24q-1 5 -2 6l-2 7q-6 17 -9 35l-2 41l1 35l5 39q29 14 59 20l53 7l21 -46h47l12 59l30 3l30 1h10l10 -1l20 -1l20 -2l9 -59h45l18 45l10 -1h10l49 -9q25 -5 45 -16l4 -23l1 -28l-1 -17v-18
l-4 -31q-1 -9 -1 -18q-3 -7 -4 -10l-2 -4l-8 -19l-8 -15l-13 -20l-16 -22l33 -248q45 -33 55.5 -86t10.5 -114h-592zM722 71q0 34 -26.5 48.5t-72.5 27.5l-28 6l-36 3l-29 1h-24l-29 -1h-21t-26 -2l-37 -3q-8 -1 -15 -1q-4 -1 -13 -4q-34 -7 -60.5 -23t-26.5 -52h444z
M633 413q-14 5 -38 10l-44 6l-26 2l-23 1q-27 0 -49 -1t-45.5 -5t-39.5 -13l-24 -196l75 8l88 3l85 -3q20 0 31 -1.5t35 -6.5zM566 574l-21 57l-23 4l-22 1l-20 -2l-20 -3l-23 -57h-61l-23 55l-4 1h-4l-10 -2l-10 -3l-5 -2l-5 -2v-4q0 -34 2 -46.5t10 -34.5q13 -35 37 -47
l74 10l62 4h26.5t27.5 -2q28 0 49 -5l19 -3l19 -4q22 12 31 40q4 13 6.5 27t4.5 34l1 16v15l-10 4l-12 3l-8 1l-8 1l-23 -56h-57zM1000 243l-141 -141l-10 32l151 151v-42zM0 208l212 212l-6 -48l-206 -206v42zM1000 402l-180 -180l-15 27l195 195v-42zM0 367l189 189l9 -33
l-198 -198v42zM1000 560l-214 -214l-4 38l218 218v-42zM0 527l184 184l-4 -46l-180 -180v42zM1000 725l-180 -180l3 45l177 177v-42zM208 900h42l-250 -250v42zM1000 900l-195 -195l-14 28l167 167h42zM402 900l-132 -132l-49 -7l139 139h42zM552 900l-134 -134h-42l134 134
h42zM852 900l-132 -132h-42l132 132h42zM702 900l-128 -128h-42l128 128h42zM60 900h42l-102 -102v42z" />
    <glyph glyph-name="S" unicode="S" 
 />
    <glyph glyph-name="T" unicode="T" 
d="M27 -100l122 122l-7 -49l-73 -73h-42zM177 -100l52 52h42l-52 -52h-42zM327 -100l52 52h42l-52 -52h-42zM476 -100l52 52h42l-52 -52h-42zM626 -100l52 52h42l-52 -52h-42zM777 -100l223 223v-42l-181 -181h-42zM926 -100l74 74v-42l-32 -32h-42zM199 0v2v25l3 31
q3 30 16 54.5t47 27.5l35 3l40 4l74 7l86 3q23 0 49 -1t55 -4q32 0 69 -5t63 -8t39 -34q3 -8 8 -26t5 -39l1 -19v-18v-3h-590zM0 44l208 208l-6 -48l-202 -202v42zM1000 243l-159 -159l-3 39l162 162v-42zM0 209l230 230l-6 -48l-224 -224v42zM318 431q25 7 76 13t106 6
q53 0 104 -5.5t83 -13.5l34 -235l-119 12q-23 0 -59.5 2.5t-42.5 2.5l-87 -3l-72 -7l-34 -4l-27 -3zM1000 403l-197 -197l-6 36l203 203v-42zM0 369l206 206l9 -33l-215 -215v42zM1000 560l-218 -218l-6 36l224 224v-42zM0 527l171 171l10 -32l-181 -181v42zM419 600l19 112
h7l8 2l23 2l24 1l20 -1l20 -1l10 -2l10 -1l17 -112h52l34 97l20 -3l21 -3l20 -6l21 -9l-6 -98q-3 -29 -15.5 -51.5t-36.5 -40.5l-26 3l-26 4l-61 7l-74 4q-19 0 -40.5 -1t-43.5 -4q-18 0 -41.5 -3.5t-56.5 -9.5q-27 14 -38.5 34t-16.5 46l-10 110l22 9l25 7l19 3l18 2
l34 -97h48zM1000 725l-206 -206l13 55l193 193v-42zM208 900h42l-250 -250v42zM1000 900l-195 -195l-6 36l159 159h42zM411 900l-134 -134h-42l134 134h42zM561 900l-134 -134h-42l134 134h42zM711 900l-134 -134h-42l134 134h42zM861 900l-134 -134h-42l134 134h42zM60 900
h42l-102 -102v42z" />
    <glyph glyph-name="U" unicode="U" 
 />
    <glyph glyph-name="V" unicode="V" 
 />
    <glyph glyph-name="W" unicode="W" 
d="M27 -100l100 100l-2 -44l-56 -56h-42zM177 -100l46 46h42l-46 -46h-42zM327 -100l46 46h42l-46 -46h-42zM476 -100l46 46h42l-46 -46h-42zM626 -100l46 46h42l-46 -46h-42zM776 -100l46 46h42l-46 -46h-42zM926 -100l74 74v-42l-32 -32h-42zM1000 86l-114 -114l-7 35
l121 121v-42zM0 42l171 171l13 -29l-184 -184v42zM209 0v2v26q0 20 2.5 39.5t14.5 44.5t41 28l35 3l38 4l72 7l85 3q22 0 49.5 -1t57.5 -4q34 0 71 -5t63 -8t39 -34q3 -8 8 -26t5 -39l1 -19v-18v-3h-582zM1000 243l-141 -141l-16 26l157 157v-42zM0 203l124 124l13 -29
l-137 -137v42zM775 517l-12 19l-4 25q0 27 21 49t50 22q27 0 49.5 -21.5t22.5 -49.5t-18.5 -47.5t-45.5 -24.5l-108 -293l-125 12l-106 5l-85 -3l-72 -7l-38 -4l-35 -3l-106 294q-25 0 -45.5 21.5t-20.5 49.5q0 27 21.5 49.5t50.5 22.5q28 0 49.5 -21.5t21.5 -50.5v-3
l-4 -16q-3 -10 -13 -24l103 -117l43 208q-21 0 -38.5 21.5t-17.5 48.5q0 32 23 54t53 22t53 -21.5t23 -54.5l-1 -7v-7q-3 -13 -11 -25.5t-23 -21.5l71 -206l70 206q-13 10 -21.5 26.5t-8.5 34.5q0 32 23 54t53 22t53 -21.5t23 -54.5q0 -27 -14 -44t-38 -26l35 -208z
M1000 405l-145 -145l18 60l127 127v-42zM0 359l77 77l13 -29l-90 -90v42zM0 518l53 53l-1 -43l-52 -52v42zM1000 571l-41 -41l1 43l40 40v-42zM1000 731l-82 -82l-23 19l105 105v-42zM208 900h42l-250 -250v42zM417 900l-214 -214l-57 -15l229 229h42zM1000 900l-204 -204
l-38 4l200 200h42zM860 900l-141 -141l-15 27l114 114h42zM60 900h42l-102 -102v42zM558 900l-84 -84h-42l84 84h42zM708 900l-84 -84h-42l84 84h42z" />
    <glyph glyph-name="X" unicode="X" 
 />
    <glyph glyph-name="Y" unicode="Y" 
 />
    <glyph glyph-name="Z" unicode="Z" 
 />
    <glyph glyph-name="bracketleft" unicode="[" 
 />
    <glyph glyph-name="backslash" unicode="\" 
d="M0 -150v1100h50v-1100h-50z" />
    <glyph glyph-name="bracketright" unicode="]" 
 />
    <glyph glyph-name="asciicircum" unicode="^" 
 />
    <glyph glyph-name="underscore" unicode="_" 
d="M-50 900h1100v-50h-1100v50z" />
    <glyph glyph-name="grave" unicode="`" 
 />
    <glyph glyph-name="a" unicode="a" 
 />
    <glyph glyph-name="b" unicode="b" 
d="M877 0h-291q-16 0 -29 9t-23 22l-9 11l-8 10l-8 6q-3 3 -9 3l-6 -1l-4 -2q-5 -3 -13 -12l-14 -15q-10 -12 -26.5 -21.5t-44.5 -9.5h-269l-42 200h264h4h5l12 1q3 1 5 6q0 8 -15 22l-32 37q-19 24 -33 57t-14 80q0 59 21 101.5t48 74t48.5 49.5t22.5 25l-2 9l-3 14l-4 17
l-1 23q0 33 29 60.5t64 27.5h5h5q29 -3 55.5 -31t26.5 -68l-1 -14q0 -8 -2 -12l-4 -11l-6 -12l20 -17l19 -17q52 -47 78.5 -98t26.5 -122q0 -38 -14.5 -70.5t-32.5 -56.5l-33 -42q-12 -15 -14 -26q4 -6 6 -6l17 -1h5h262zM833 129h-217q-26 0 -46 17.5t-20 42.5l1 10l3 11
q6 16 19 35l28 37q6 8 17 25q8 12 18 29q16 30 16 65q0 64 -24.5 115t-77.5 80q-26 -55 -32 -110l-5 -85v-8v-6h-67v7q0 39 1.5 57.5t8.5 46.5q14 51 31 92l28 64q11 26 13 35v5q0 18 -8 31q-6 14 -24 14h-5q-9 -1 -19 -11t-10 -25l1 -19l4 -17v-4l1 -3l2 -13l1 -13
q0 -9 -4 -16l-11 -14l-22 -19q-13 -10 -24 -22q-23 -22 -42.5 -63t-19.5 -112q0 -33 15 -59.5t35 -50.5l18 -24l17 -23l10 -21l4 -22q0 -30 -18.5 -44.5t-45.5 -14.5h-216l12 -58h226q17 0 29 9l20 22l3 3l18 19q9 9 25 9q10 0 21 -9l20 -18l3 -4l22 -22q11 -9 24 -9h230z
" />
    <glyph glyph-name="c" unicode="c" 
 />
    <glyph glyph-name="d" unicode="d" 
 />
    <glyph glyph-name="e" unicode="e" 
 />
    <glyph glyph-name="f" unicode="f" 
 />
    <glyph glyph-name="g" unicode="g" 
 />
    <glyph glyph-name="h" unicode="h" 
d="M227 0v18l1 18q0 24 6.5 47.5t19.5 48.5q21 45 83 69q0 30 26 53l58 42l6 4l6 4l50 37q22 19 22 44l-3 15q-3 6 -16 7l-9 -3l-7 -7l-8 -10l-7 -10l-12 -14l-15 -11l-18 -8q-2 -1 -19 -6l-32 -10q-16 -4 -26.5 -10.5t-12 -17t-2.5 -11.5l-3 -6q-8 -8 -28 -19
q-19 -8 -40 -8q-39 0 -62 29t-26 64v6q0 38 18 70q10 18 19 31.5t22 28.5l17 21l16 22q8 11 10 15q3 6 7.5 16t6.5 17.5t2 18.5q0 16 11 27l28 25l4 3l5 3l31 27q16 16 16 33l2 14q0 11 2.5 22t9 22t20.5 14q13 -7 27 -23l29 -33q15 -21 32.5 -37.5t36.5 -21.5
q3 -1 16.5 -4.5t31.5 -9.5q39 -11 84.5 -42.5t87.5 -94t42 -167.5q0 -21 -1 -39t-4 -34l-12 -58l-4 -11l-3 -11q54 -35 63 -81t9 -101v-9v-8h-614zM767 71q0 33 -27 48q-13 8 -27 13t-40 13l-3 1l-21 5l-18 3l-46 3h-39h-9h-8h-4h-4l-39 -1l-52 -3l-22 -3l-20 -4
q-35 -9 -61 -24.5t-26 -50.5h466zM674 504q-48 63 -106 93q-18 10 -38 16t-39 6q-6 0 -15 9l-17 20l-2 2l-19 24q-8 8 -15 10l-4 -2q-3 -21 -14 -36t-24 -26l-26 -20q-10 -7 -13 -16q-10 -35 -22 -60l-24 -45q-17 -26 -32.5 -44.5t-23.5 -33.5l-8 -16l-2 -15v-6l1 -6
q2 -13 8 -22t18 -9l9 1l7 4l8 8l13 14l2 2l4 3l17 10l22 10l32 12l18 5q7 1 9 2l8 8l11 14l13 17l24 28q15 13 32 13h6q24 0 44 -18t32 -41l6 -16l2 -15q0 -48 -22.5 -72.5t-50.5 -42.5l-25 -13q-14 -5 -21 -11l-20 -13q-5 -5 -7 -16l44 5q27 3 76 3l82 -3q12 0 23.5 -0.5
t42.5 -4.5q12 19 20 61q2 13 3 40.5t1 43.5q0 74 -48 139z" />
    <glyph glyph-name="i" unicode="i" 
 />
    <glyph glyph-name="j" unicode="j" 
d="M244 0v2v25l3 31q3 30 16 54.5t47 27.5l35 3l38 4l72 7l85 3q22 0 49.5 -1t57.5 -4q34 0 71 -5t63 -8t39 -34q3 -8 8 -26t5 -39l1 -19v-18v-3h-590zM420 393q-20 -9 -33 -14q-3 -1 -37 -12l-2 -1l-21 -6l-20 -7q-7 -2 -17 -12l-11 -17l-2 -3l-1 -3l-13 -18q-6 -6 -17 -7
l-11 1l-11 2q-20 6 -39 21t-19 33q0 43 22 81q21 40 50 67q12 12 24 28q6 8 14 20q16 29 16 62q0 12 5 20l15 17l13 10l14 13l19 21q8 11 16 30l3 11l3 12v2l7 27q5 12 19 12l19 -19l19 -21l3 -5l4 -5q18 -24 40.5 -44t54.5 -20q12 0 46 -11.5t71 -40.5q45 -35 86 -105
q20 -34 30 -77.5t10 -100.5v-7v-6v-18q0 -12 2 -18v-64q0 -25 -17 -25h-1h-1h-6l-5 1l-118 12l-102 4l-84 -3l-72 -7l-38 -4l-35 -3q-7 0 -10 2q-3 3 -3 8l3 11l9 14l12 12l14 12l3 2l3 3l33 15q14 5 21 8t22 11q33 15 60 39t27 64l-1 9l-1 11q-2 7 -3 11l-5 12.5t-8 11.5
h-3l-3 -2l-3 -3q-24 -40 -59 -54z" />
    <glyph glyph-name="k" unicode="k" 
d="M195 0q0 45 1.5 62t6.5 43q9 46 58 85q0 14 -1 22.5t-6 18.5q-8 19 -22 36l-18 20l-19 23q-21 25 -43 63q-10 19 -16.5 42t-6.5 49v13l1 13q8 57 47 103t99 46t96 -26q37 -24 62 -56q21 -27 37 -57q13 -24 25 -25q7 0 19.5 25.5t36.5 56.5t62 56.5t100 25.5
q81 0 119.5 -53.5t38.5 -129.5q0 -42 -20 -76q-11 -19 -20 -32.5t-24 -31.5l-30 -39l-23 -36l-8 -21l-3 -21v-5l1 -6q49 -34 57.5 -83t8.5 -105h-616zM737 71q0 37 -26.5 52t-72.5 24l-28 4l-44 3h-15q-9 0 -25 2l-28 1l-27 -1l-45 -3q-20 0 -32 -2l-26 -3l-8 -1l-5 -1
q-33 -4 -59.5 -20t-26.5 -55h468zM477 400l-17 16l-22 29l-24 36q-24 35 -56 60q-32 27 -83 27q-25 0 -40 -14t-25 -34l-8 -26l-2 -18q0 -46 19 -78.5t46 -66.5l22 -28l21 -28l15 -30q6 -14 6 -30q26 5 42.5 7.5t36.5 2.5l83 3l43 -1l45 -3q26 0 49 -4q13 0 21 -1t26 -4
q0 25 12 47.5t27 41.5l12 15l12 15q24 29 43.5 62.5t19.5 78.5q0 49 -28 71t-73 22q-49 0 -80 -27t-52 -60l-21 -34l-18 -28q-6 -11 -15 -17.5t-18 -6.5q-10 0 -19 5zM550 794q21 -18 21 -47q0 -11 -8 -39.5t-22 -58.5l-5 -14l-6 -14l-19 -43l-15 -28q-7 9 -15 26l-17 41
l-7 16l-6 17l-19 57q-1 5 -4 20.5t-4 19.5q0 26 21 47q22 19 55 19q30 0 50 -19zM479 749l-4 -21q0 -12 6 -33l14 -46l15 46q6 20 6 33q0 16 -5 21q-3 6 -15 6q-11 0 -17 -6z" />
    <glyph glyph-name="l" unicode="l" 
d="M205 0v2v25l3 31q3 30 16 54.5t47 27.5l35 3l38 4l72 7l85 3q22 0 49.5 -1t57.5 -4q34 0 71 -5t63 -8t39 -34q3 -8 8 -26t5 -39l1 -19v-18v-3h-590zM748 269l4 -14l3 -15l2 -13q0 -8 -5 -15.5t-20 -15.5l-124 12l-107 5l-92 -3l-77 -7l-31 -4l-30 -3q-12 7 -20 18
q-3 6 -5 21l1 10q0 7 2 11l1 6l2 5l3 16l2 15q0 15 -8 24q-6 11 -18 21l-14 12l-16 14q-19 17 -38 44q-17 28 -17 72q0 69 46 118.5t110 49.5q56 0 91 -21q31 -18 53 -45l2 -3q16 -19 24.5 -37t16.5 -26l6 -6l6 -1l4 1l5 5l14 26q7 17 22 38l2 3q20 25 56 45.5t103 20.5
q63 0 105.5 -45.5t42.5 -122.5q0 -38 -17.5 -64.5t-36.5 -47.5l-12 -12l-11 -12l-22 -31q-9 -15 -9 -33zM346 426l3 -6l8 -15l12 -14l12 -17q6 -8 9 -17l1 -5l1 -4v-5l1 -4l3 -16q3 -6 10 -6q5 0 10 6l3 15v6v6q0 7 -2 11l-3 11l-6 13l-6 13l-9 21l-6 22l-2 6l-8 10
q-3 3 -12 5q-5 0 -11 -6l-6 -13q-1 -5 -2 -6v-5v-6zM653 437l-1 6l-7 13q-3 6 -10 6t-13 -5l-7 -10l-2 -4l-7 -22l-8 -20l-7 -15l-5 -14l-4 -11l-1 -11v-6v-6l3 -15q3 -6 10 -6q6 0 9 7l4 15l1 6v7l2 5l9 17l12 17l11 14l9 15l2 6l1 6zM551 790q19 -17 19 -47q0 -16 -10 -45
l-22 -61q-2 -8 -5 -12l-4 -11l-16 -37l-13 -30l-14 31q-5 16 -8 22q-6 11 -8 15l-4 11l-5 11l-21 58q-9 27 -9 43v6l1 6q3 21 20.5 39t47.5 18q33 0 51 -17z" />
    <glyph glyph-name="m" unicode="m" 
 />
    <glyph glyph-name="n" unicode="n" 
d="M877 0h-285q-21 0 -35 11l-21 25l-2 3l-8 13l-6 11l-10 11l-9 4q-8 -2 -10 -4l-8 -8l-9 -12l-9 -15l-2 -3q-9 -12 -25 -25q-16 -11 -39 -11h-274l-33 148h226q10 0 13 7l4 18v2v5l1 5q2 9 6.5 16t17.5 8h304q6 0 9 -7l4 -13v-6v-4v-3v-6q0 -10 2 -15q1 -6 8 -7h222z
M515 454l1 16q0 10 2 16l3 26l6 31l3 12l3 12q5 14 8.5 23t13 25.5t26.5 34.5q36 -6 68 -47.5t54 -92.5l13 -45l5 -39q0 -79 -14 -111q-12 -33 -30 -45q-8 -5 -19 -7l-15 -1h-2h-262h-2l-20 1q-10 0 -23 7q-19 10 -36.5 44.5t-17.5 111.5q0 61 25 106t54.5 77t54 50.5
t25.5 26.5l-2 13l-3 13l-1 3l-5 19l-2 17q0 25 15 45.5t50 20.5q23 0 40.5 -18.5t21.5 -42.5l1 -6v-6q0 -25 -10 -48l-21 -45l-6 -9l-4 -9l-24 -45q-11 -21 -14.5 -40.5t-5.5 -32t-3 -20.5v-41h49z" />
    <glyph glyph-name="o" unicode="o" 
d="M257 0l-3 20l-1 19q0 42 16 70q9 16 17.5 26.5t20.5 21.5l6 5l7 5q20 16 39.5 25t21.5 13l-1 7v8l3 28l9 28q15 33 41.5 56.5t57.5 29.5l5 1h5l7 -1h7q27 -6 53 -30t41 -56l7 -21l4 -21l1 -7v-7v-8l-1 -7l21 -13q18 -8 43 -27l5 -4l6 -4q20 -17 37 -47t17 -72l-1 -19
l-3 -19h-488zM433 547q28 28 68 28q39 0 67 -28t28 -67t-28 -67t-67 -28t-67 27.5t-28 67.5q0 38 27 67z" />
    <glyph glyph-name="p" unicode="p" 
d="M240 0q0 71 26.5 125t78.5 91q12 8 15 23l4 32v5v4l1 18q0 9 4 16l9 14l14 14l2 2l18 20q9 9 9 22q0 10 -7 21l-15 27l-16 33q-6 18 -6 37q0 47 37.5 81.5t86.5 34.5q48 0 85.5 -34.5t37.5 -81.5q0 -17 -6 -36.5t-16 -33.5l-15 -27q-1 -2 -4 -10.5t-3 -10.5q0 -13 8 -22
l19 -20l2 -2l14 -14q7 -6 9 -14l4 -18l1 -23v-5v-4q0 -15 4 -27.5t15 -20.5q49 -34 77 -89q14 -28 21 -58t7 -69h-521zM690 71q0 28 -16 48t-37 36l-25 19l-19 17q-5 5 -8 13l-2 14v8l2 10v10l1 11q0 13 -1.5 22.5t-9.5 22.5q-3 10 -11 15l-14 14l-1 1q-12 9 -21 21t-9 33
q0 11 2 16l6 13l4 7l4 8l12 26q6 15 6 42q0 25 -14 38q-4 3 -13.5 8t-23.5 5q-25 0 -39.5 -13t-14.5 -38q0 -26 4.5 -40.5t10.5 -23.5l2 -4l4 -8l5 -7l6 -13l2 -16q0 -21 -9 -33l-20 -21l-2 -2l-14 -13l-10 -15l-10 -26l-2 -22v-10l2 -10v-9l1 -8l-3 -14q-2 -7 -7 -12
l-19 -17l-25 -19q-18 -14 -37 -36q-16 -21 -16 -48h379z" />
    <glyph glyph-name="q" unicode="q" 
d="M196 0q0 45 1.5 62t7.5 53t56 75l-91 289q-29 0 -48 21t-19 49q0 31 21 52t50 21q30 0 51 -21.5t21 -51.5l-3 -18q-2 -9 -11 -20l79 -84l30 153q-25 11 -39 31t-14 45q0 33 23.5 56.5t57.5 23.5q32 0 57 -23.5t25 -56.5q0 -19 -9.5 -36.5t-24.5 -29.5l81 -151l82 151
q-10 7 -17.5 17.5t-12.5 24.5l-3 13l-1 11q0 32 24 56t57 24q32 0 57 -23.5t25 -56.5q0 -24 -14.5 -45t-38.5 -31l28 -154l80 85l-7 18l-3 20q0 31 21 52t50 21q30 0 51 -21.5t21 -51.5q0 -28 -18.5 -47.5t-47.5 -22.5l-93 -287q49 -37 58 -85t9 -107h-609zM731 71
q0 33 -26.5 47.5t-72.5 27.5l-23 5l-22 4l-41 2h-34h-8h-6h-4l-39 -1h-33q-16 -3 -23 -4l-22 -3l-20 -4q-34 -7 -60.5 -23t-26.5 -51h461zM651 323l-36 213l-117 -209l-115 209l-38 -215l-103 105l-2 -3l81 -210l51 8l49 5l33 1l34 1l78 -3l85 -9l15 -3q10 0 16 -2l75 213
l-2 2zM157 533q6 -6 17 -7q11 0 17 7t8 18q0 9 -6 15.5t-19 8.5q-9 0 -16 -6.5t-8 -17.5q0 -10 7 -18zM808 533q6 -6 17 -7q9 0 16 6.5t9 18.5q0 9 -8 16q-5 7 -17 8q-9 0 -15.5 -6.5t-8.5 -17.5q0 -10 7 -18zM349 634q8 -6 20 -8q12 0 20.5 8.5t8.5 20.5q0 11 -7.5 19
t-21.5 9q-11 0 -18.5 -7t-9.5 -21q0 -13 8 -21zM607 634q8 -6 20 -8q13 0 21 8q6 8 8 21q0 12 -7 19t-22 9q-11 0 -18.5 -7t-9.5 -21q0 -13 8 -21z" />
    <glyph glyph-name="r" unicode="r" 
d="M204 0q0 66 8.5 111.5t58.5 88.5l32 248l-7 8l-7 9l-16 21l-13 24q-1 5 -2 6l-2 7q-6 17 -9 35l-2 41l1 35l5 39q29 14 59 20l53 7l21 -46h47l12 59l30 3l30 1h10l10 -1l20 -1l20 -2l9 -59h45l18 45l10 -1h10l49 -9q25 -5 45 -16l4 -23l1 -28l-1 -17v-18l-4 -31
q-1 -9 -1 -18q-3 -7 -4 -10l-2 -4l-8 -19l-8 -15l-13 -20l-16 -22l33 -248q45 -33 55.5 -86t10.5 -114h-592zM722 71q0 34 -26.5 48.5t-72.5 27.5l-28 6l-36 3l-29 1h-24l-29 -1h-21t-26 -2l-37 -3q-8 -1 -15 -1q-4 -1 -13 -4q-34 -7 -60.5 -23t-26.5 -52h444zM633 413
q-14 5 -38 10l-44 6l-26 2l-23 1q-27 0 -49 -1t-45.5 -5t-39.5 -13l-24 -196l75 8l88 3l85 -3q20 0 31 -1.5t35 -6.5zM566 574l-21 57l-23 4l-22 1l-20 -2l-20 -3l-23 -57h-61l-23 55l-4 1h-4l-10 -2l-10 -3l-5 -2l-5 -2v-4q0 -34 2 -46.5t10 -34.5q13 -35 37 -47l74 10
l62 4h26.5t27.5 -2q28 0 49 -5l19 -3l19 -4q22 12 31 40q4 13 6.5 27t4.5 34l1 16v15l-10 4l-12 3l-8 1l-8 1l-23 -56h-57z" />
    <glyph glyph-name="s" unicode="s" 
 />
    <glyph glyph-name="t" unicode="t" 
d="M199 0v2v25l3 31q3 30 16 54.5t47 27.5l35 3l40 4l74 7l86 3q23 0 49 -1t55 -4q32 0 69 -5t63 -8t39 -34q3 -8 8 -26t5 -39l1 -19v-18v-3h-590zM318 431q25 7 76 13t106 6q53 0 104 -5.5t83 -13.5l34 -235l-119 12q-23 0 -59.5 2.5t-42.5 2.5l-87 -3l-72 -7l-34 -4
l-27 -3zM419 600l19 112h7l8 2l23 2l24 1l20 -1l20 -1l10 -2l10 -1l17 -112h52l34 97l20 -3l21 -3l20 -6l21 -9l-6 -98q-3 -29 -15.5 -51.5t-36.5 -40.5l-26 3l-26 4l-61 7l-74 4q-19 0 -40.5 -1t-43.5 -4q-18 0 -41.5 -3.5t-56.5 -9.5q-27 14 -38.5 34t-16.5 46l-10 110
l22 9l25 7l19 3l18 2l34 -97h48z" />
    <glyph glyph-name="u" unicode="u" 
 />
    <glyph glyph-name="v" unicode="v" 
 />
    <glyph glyph-name="w" unicode="w" 
d="M209 0v2v26q0 20 2.5 39.5t14.5 44.5t41 28l35 3l38 4l72 7l85 3q22 0 49.5 -1t57.5 -4q34 0 71 -5t63 -8t39 -34q3 -8 8 -26t5 -39l1 -19v-18v-3h-582zM775 517l-12 19l-4 25q0 27 21 49t50 22q27 0 49.5 -21.5t22.5 -49.5t-18.5 -47.5t-45.5 -24.5l-108 -293l-125 12
l-106 5l-85 -3l-72 -7l-38 -4l-35 -3l-106 294q-25 0 -45.5 21.5t-20.5 49.5q0 27 21.5 49.5t50.5 22.5q28 0 49.5 -21.5t21.5 -50.5v-3l-4 -16q-3 -10 -13 -24l103 -117l43 208q-21 0 -38.5 21.5t-17.5 48.5q0 32 23 54t53 22t53 -21.5t23 -54.5l-1 -7v-7q-3 -13 -11 -25.5
t-23 -21.5l71 -206l70 206q-13 10 -21.5 26.5t-8.5 34.5q0 32 23 54t53 22t53 -21.5t23 -54.5q0 -27 -14 -44t-38 -26l35 -208z" />
    <glyph glyph-name="x" unicode="x" 
 />
    <glyph glyph-name="y" unicode="y" 
 />
    <glyph glyph-name="z" unicode="z" 
 />
    <glyph glyph-name="braceleft" unicode="{" 
 />
    <glyph glyph-name="bar" unicode="|" 
 />
    <glyph glyph-name="braceright" unicode="}" 
 />
    <glyph glyph-name="asciitilde" unicode="~" 
 />
    <glyph glyph-name="Adieresis" unicode="&#xc4;" 
 />
    <glyph glyph-name="Aring" unicode="&#xc5;" 
 />
    <glyph glyph-name="Ccedilla" unicode="&#xc7;" 
 />
    <glyph glyph-name="Eacute" unicode="&#xc9;" 
 />
    <glyph glyph-name="Ntilde" unicode="&#xd1;" 
 />
    <glyph glyph-name="Odieresis" unicode="&#xd6;" 
 />
    <glyph glyph-name="Udieresis" unicode="&#xdc;" 
 />
    <glyph glyph-name="aacute" unicode="&#xe1;" 
 />
    <glyph glyph-name="agrave" unicode="&#xe0;" 
 />
    <glyph glyph-name="acircumflex" unicode="&#xe2;" 
 />
    <glyph glyph-name="adieresis" unicode="&#xe4;" 
 />
    <glyph glyph-name="atilde" unicode="&#xe3;" 
 />
    <glyph glyph-name="aring" unicode="&#xe5;" 
 />
    <glyph glyph-name="ccedilla" unicode="&#xe7;" 
 />
    <glyph glyph-name="eacute" unicode="&#xe9;" 
 />
    <glyph glyph-name="egrave" unicode="&#xe8;" 
 />
    <glyph glyph-name="ecircumflex" unicode="&#xea;" 
 />
    <glyph glyph-name="edieresis" unicode="&#xeb;" 
 />
    <glyph glyph-name="iacute" unicode="&#xed;" 
 />
    <glyph glyph-name="igrave" unicode="&#xec;" 
 />
    <glyph glyph-name="icircumflex" unicode="&#xee;" 
 />
    <glyph glyph-name="idieresis" unicode="&#xef;" 
 />
    <glyph glyph-name="ntilde" unicode="&#xf1;" 
 />
    <glyph glyph-name="oacute" unicode="&#xf3;" 
 />
    <glyph glyph-name="ograve" unicode="&#xf2;" 
 />
    <glyph glyph-name="ocircumflex" unicode="&#xf4;" 
 />
    <glyph glyph-name="odieresis" unicode="&#xf6;" 
 />
    <glyph glyph-name="otilde" unicode="&#xf5;" 
 />
    <glyph glyph-name="uacute" unicode="&#xfa;" 
 />
    <glyph glyph-name="ugrave" unicode="&#xf9;" 
 />
    <glyph glyph-name="ucircumflex" unicode="&#xfb;" 
 />
    <glyph glyph-name="udieresis" unicode="&#xfc;" 
 />
    <glyph glyph-name="dagger" unicode="&#x2020;" 
 />
    <glyph glyph-name="degree" unicode="&#xb0;" 
 />
    <glyph glyph-name="cent" unicode="&#xa2;" 
 />
    <glyph glyph-name="sterling" unicode="&#xa3;" 
 />
    <glyph glyph-name="section" unicode="&#xa7;" 
 />
    <glyph glyph-name="bullet" unicode="&#x2022;" 
 />
    <glyph glyph-name="paragraph" unicode="&#xb6;" 
 />
    <glyph glyph-name="germandbls" unicode="&#xdf;" 
 />
    <glyph glyph-name="registered" unicode="&#xae;" 
 />
    <glyph glyph-name="copyright" unicode="&#xa9;" 
 />
    <glyph glyph-name="trademark" unicode="&#x2122;" 
 />
    <glyph glyph-name="acute" unicode="&#xb4;" 
 />
    <glyph glyph-name="dieresis" unicode="&#xa8;" 
 />
    <glyph glyph-name="AE" unicode="&#xc6;" 
 />
    <glyph glyph-name="Oslash" unicode="&#xd8;" 
 />
    <glyph glyph-name="plusminus" unicode="&#xb1;" 
 />
    <glyph glyph-name="yen" unicode="&#xa5;" 
 />
    <glyph glyph-name="mu" unicode="&#xb5;" 
 />
    <glyph glyph-name="ordfeminine" unicode="&#xaa;" 
 />
    <glyph glyph-name="ordmasculine" unicode="&#xba;" 
 />
    <glyph glyph-name="ae" unicode="&#xe6;" 
 />
    <glyph glyph-name="oslash" unicode="&#xf8;" 
 />
    <glyph glyph-name="questiondown" unicode="&#xbf;" 
 />
    <glyph glyph-name="exclamdown" unicode="&#xa1;" 
 />
    <glyph glyph-name="logicalnot" unicode="&#xac;" 
 />
    <glyph glyph-name="florin" unicode="&#x192;" 
 />
    <glyph glyph-name="guillemotleft" unicode="&#xab;" 
 />
    <glyph glyph-name="guillemotright" unicode="&#xbb;" 
 />
    <glyph glyph-name="ellipsis" unicode="&#x2026;" 
 />
    <glyph glyph-name="nonbreakingspace" unicode="&#xa0;" 
 />
    <glyph glyph-name="Agrave" unicode="&#xc0;" 
 />
    <glyph glyph-name="Atilde" unicode="&#xc3;" 
 />
    <glyph glyph-name="Otilde" unicode="&#xd5;" 
 />
    <glyph glyph-name="OE" unicode="&#x152;" 
 />
    <glyph glyph-name="oe" unicode="&#x153;" 
 />
    <glyph glyph-name="emdash" unicode="&#x2014;" 
 />
    <glyph glyph-name="quotedblleft" unicode="&#x201c;" 
 />
    <glyph glyph-name="quotedblright" unicode="&#x201d;" 
 />
    <glyph glyph-name="quoteleft" unicode="&#x2018;" 
 />
    <glyph glyph-name="quoteright" unicode="&#x2019;" 
 />
    <glyph glyph-name="divide" unicode="&#xf7;" 
 />
    <glyph glyph-name="ydieresis" unicode="&#xff;" 
 />
    <glyph glyph-name="Ydieresis" unicode="&#x178;" 
 />
    <glyph glyph-name="currency" unicode="&#xa4;" 
 />
    <glyph glyph-name="guilsinglleft" unicode="&#x2039;" 
 />
    <glyph glyph-name="guilsinglright" unicode="&#x203a;" 
 />
    <glyph glyph-name="daggerdbl" unicode="&#x2021;" 
 />
    <glyph glyph-name="periodcentered" unicode="&#xb7;" 
 />
    <glyph glyph-name="periodcentered" unicode="&#x2219;" 
 />
    <glyph glyph-name="quotesinglbase" unicode="&#x201a;" 
 />
    <glyph glyph-name="quotedblbase" unicode="&#x201e;" 
 />
    <glyph glyph-name="perthousand" unicode="&#x2030;" 
 />
    <glyph glyph-name="Acircumflex" unicode="&#xc2;" 
 />
    <glyph glyph-name="Ecircumflex" unicode="&#xca;" 
 />
    <glyph glyph-name="Aacute" unicode="&#xc1;" 
 />
    <glyph glyph-name="Edieresis" unicode="&#xcb;" 
 />
    <glyph glyph-name="Egrave" unicode="&#xc8;" 
 />
    <glyph glyph-name="Iacute" unicode="&#xcd;" 
 />
    <glyph glyph-name="Icircumflex" unicode="&#xce;" 
 />
    <glyph glyph-name="Idieresis" unicode="&#xcf;" 
 />
    <glyph glyph-name="Igrave" unicode="&#xcc;" 
 />
    <glyph glyph-name="Oacute" unicode="&#xd3;" 
 />
    <glyph glyph-name="Ocircumflex" unicode="&#xd4;" 
 />
    <glyph glyph-name="Ograve" unicode="&#xd2;" 
 />
    <glyph glyph-name="Uacute" unicode="&#xda;" 
 />
    <glyph glyph-name="Ucircumflex" unicode="&#xdb;" 
 />
    <glyph glyph-name="Ugrave" unicode="&#xd9;" 
 />
    <glyph glyph-name="circumflex" unicode="&#x2c6;" 
 />
    <glyph glyph-name="tilde" unicode="&#x2dc;" 
 />
    <glyph glyph-name="macron" unicode="&#xaf;" 
 />
    <glyph glyph-name="cedilla" unicode="&#xb8;" 
 />
    <glyph glyph-name="Scaron" unicode="&#x160;" 
 />
    <glyph glyph-name="scaron" unicode="&#x161;" 
 />
    <glyph glyph-name="Zcaron" unicode="&#x17d;" 
 />
    <glyph glyph-name="zcaron" unicode="&#x17e;" 
 />
    <glyph glyph-name="brokenbar" unicode="&#xa6;" 
 />
    <glyph glyph-name="Eth" unicode="&#xd0;" 
 />
    <glyph glyph-name="eth" unicode="&#xf0;" 
 />
    <glyph glyph-name="Yacute" unicode="&#xdd;" 
 />
    <glyph glyph-name="yacute" unicode="&#xfd;" 
 />
    <glyph glyph-name="Thorn" unicode="&#xde;" 
 />
    <glyph glyph-name="thorn" unicode="&#xfe;" 
 />
    <glyph glyph-name="minus" unicode="&#xad;" 
 />
    <glyph glyph-name="multiply" unicode="&#xd7;" 
 />
    <glyph glyph-name="onesuperior" unicode="&#xb9;" 
 />
    <glyph glyph-name="twosuperior" unicode="&#xb2;" 
 />
    <glyph glyph-name="threesuperior" unicode="&#xb3;" 
 />
    <glyph glyph-name="onehalf" unicode="&#xbd;" 
 />
    <glyph glyph-name="onequarter" unicode="&#xbc;" 
 />
    <glyph glyph-name="threequarters" unicode="&#xbe;" 
 />
    <glyph glyph-name="c279" 
 />
    <glyph glyph-name="c312" 
 />
    <glyph glyph-name="c313" 
 />
    <glyph glyph-name="c350" 
 />
    <glyph glyph-name="c376" 
 />
  </font>
</defs>
</svg>
